<svg xmlns="http://www.w3.org/2000/svg" width="294" height="145" fill="none"><path fill="#4E3629" d="M293.19 133A935.755 935.755 0 0 1 .43 133V12.04a935.756 935.756 0 0 1 292.76 0V133Z"/><path fill="#fff" d="M146.81 136.89c-45.79 0-92.01-3.44-137.35-10.22l-1.39-.21V18.59l1.39-.21A931.972 931.972 0 0 1 146.81 8.16c45.79 0 92.01 3.44 137.35 10.22l1.39.21v107.87l-1.39.21a931.977 931.977 0 0 1-137.35 10.22ZM11.32 123.65c44.74 6.62 90.32 9.98 135.48 9.98s90.74-3.36 135.48-9.98V21.4c-44.74-6.62-90.32-9.98-135.48-9.98S56.06 14.78 11.32 21.4v102.26-.01Z"/><path fill="#fff" d="M198.375 60.707c1.561-1.602 1.592-4.104.069-5.588-1.524-1.483-4.023-1.387-5.584.215s-1.592 4.104-.069 5.587c1.524 1.484 4.023 1.388 5.584-.214Z"/><path fill="#fff" d="M113.56 98.64c-3.41 0-6.93-1.39-9.32-3.71-2.51-2.44-3.79-5.88-3.69-9.95.31-12.49 8.03-20.19 15.94-20.61 2.56-.13 5.09.8 6.74 2.41 1.67 1.62 2.62 4.03 2.56 6.45-.11 4.64-1.95 8.48-6.51 11.18-3.02 1.79-7.03 2.87-10.61 3.27.61 2.98 3.6 4.32 6.37 4.16 10.86-.61 14.87-9.55 19.13-22.96-.73-1.47-.81-3.12-.79-3.99.08-3.14 1.58-6.59 4.71-6.76 1.24-.06 2.39.45 3.18 1.41 1.22 1.49 1.21 3.76 1.11 4.92l5.11-.27c2.66-.14 4.43.9 5.21 1.92 1.55 2.04.98 4.63.43 6.41-.12.37-.27.84-.45 1.39l-.03.08c-1.07 3.23-3.06 9.24-3.16 13.48-.03 1.27.1 2.03.4 2.32.14.13.33.18.64.17.48-.03 2.32-.62 5.81-7.25 2.09-3.98 4.19-9.26 6.07-15.28-.75-1.48-.83-3.15-.8-4.02.08-3.14 1.58-6.59 4.71-6.76 1.25-.07 2.39.45 3.18 1.41 1.22 1.49 1.21 3.77 1.12 4.93l5.41-.27c2.74-.14 4.18.97 4.9 1.92 1.55 2.04.98 4.63.43 6.41-.12.39-.28.88-.48 1.46-1.07 3.23-3.06 9.24-3.16 13.48-.03 1.19.34 2.38 1.18 2.33 1.8-.1 3.8-2.52 7.4-9.85 1.32-2.69 1.82-3.91 2.4-5.32l.68-2.77c.31-1.24.57-2.29.64-2.57.31-1.19.76-1.34 1.71-1.39l4.33-.23c.37-.02.71.13.93.4.23.28.3.65.2 1.02-.11.43-2.59 12.68-3.14 16.19-.42 2.74-.03 3.83 1.07 3.76 2.46-.13 5.87-6.84 7.29-9.36.19-.33.37-.65.54-.95 1.35-9.49 8.15-17.49 15.2-17.86 3.96-.21 8.85 1.05 9.73 8.22.09.73-.4 1.55-1.11 1.86l-3.95 1.72c-.38.17-.76.16-1.06-.02-.29-.16-.47-.46-.52-.83-.17-1.35-.79-4.47-2.99-4.36-3.24.17-8.04 6.18-8.04 14.14 0 2.45.62 4.34 1.79 5.44.93.87 2.18 1.27 3.71 1.18 5.46-.35 11.55-6.62 15.64-14.33l6.98-27.87c.19-.79.79-1.26 1.66-1.31l4.52-.21c.49-.02.77.17.91.35.25.3.31.76.18 1.3l-6.08 23.99c4.37-2.85 10.26-6.92 13.37-10.67.5-.6 1.38-.71 1.96-.23l3.1 2.53c.28.23.45.57.48.94.03.37-.09.73-.33 1.02-3.83 4.61-10.2 9.03-15.39 12.39 4.73 6.41 11.76 13.07 17.5 12.77 2.26.03 3.9-.96 5-1.61.26-.16.49-.29.69-.39.35-.18.73-.21 1.09-.08.34.12.61.36.76.68l1.71 3.65c.32.68.01 1.52-.68 1.87-2.47 1.26-5.37 2.61-8.54 2.78-9.87.5-18.69-9.34-23.26-15.58l-3.03 11.96c-.16.67-.83 1.06-1.4 1.09-.09 0-4.73.23-4.73.23-.45.02-.77-.08-.97-.32-.23-.28-.27-.7-.12-1.32l1.23-3.68c-3.9 4.03-7.78 6.77-12.56 6.77-3.63 0-6.36-.63-8.6-2.58-.96-.84-1.77-1.86-2.41-3.04-3.13 4.3-5.9 6.47-9.24 6.65-2.44.13-4.53-.67-6.01-2.3-.7-.78-1.48-1.94-1.73-3.24-3 3.9-5.76 6.26-9.43 6.48-.11 0-.23 0-.34.01h-.07c-1.85 0-3.47-.65-4.68-1.88-1.61-1.63-2.45-4.25-2.37-7.37.13-5.28 2.34-11.94 3.52-15.52l.02-.07c.11-.33.2-.74.28-1l-5.65.3c-1.51 4.7-3.09 9.01-4.73 12.59-4.31 9.43-8.8 14.13-13.72 14.39-2.23.12-4.15-.54-5.56-1.91-1.66-1.62-2.47-4.07-2.39-7.3.13-5.28 2.34-11.94 3.52-15.52.12-.36.21-.79.31-1.07l-5.64.3c-1.72 5.43-4.21 12.42-8.26 17.85-4.5 6.01-11.21 9.07-18.02 9.42-.22.01-.43.02-.65.02l.01-.03Zm2.86-27.61c-3.13.16-6.66 4.17-8.11 10.17 6.87-.99 10.36-3.12 10.36-7.96 0-1.09-.63-2.3-2.25-2.21ZM35.08 107.87c-4.5 0-7.44-1.15-10.16-3.91-.52-.52-.48-1.41.08-1.99l3.38-3.84c.29-.29.67-.45 1.07-.45.35 0 .68.13.9.36 1.54 1.56 3.06 2.11 5.38 1.98 6.55-.38 10.97-12.51 15.64-25.36 1.88-5.16 3.82-10.49 5.97-15.27.75-1.68 1.32-2.98 1.82-4.13l.32-.75c-10.14.92-15.19 3.74-15.43 8.6-.07 1.5.4 2.27.75 2.83.44.71.25 1.6-.41 2.06l-3.65 2.55c-.18.12-.82.45-1.43.33-.34-.07-.62-.25-.82-.55-1.31-1.95-1.9-4.27-1.77-6.89.47-9.5 9.42-15.42 24.55-16.22.69-.04 2.64-.14 4.51-.23 1.72-.09 3.38-.17 3.9-.2.44-.02.78.08.99.31.33.35.26.89.23 1.11l-.2 3.5c-.15 4.65.26 9.06.73 14.16.15 1.64.31 3.34.46 5.14.1 1.19.29 2.63.49 4.01.15 1.06.29 2.14.4 3.11 4.09-9.63 7.34-15.54 9.74-19.63 4.29-7.33 5.75-8.99 7.6-11.08l.45-.51c1.04-1.19 2.03-1.33 3.21-1.39l5.25-.25c.36-.02.66.1.86.34.24.28.32.68.22 1.11l-.4 1.82c-3.44 15.82-8.15 37.49-1.56 51.75.33.71.12 1.49-.5 1.91l-4.76 2.7c-.27.19-.67.25-1.08.16-.37-.08-.68-.27-.83-.5-6.7-10.74-4.04-29.86-2.03-43.08-4.15 7.02-9.31 18.57-15.72 35.23-.23.59-.76.93-1.53.99l-5.45.29c-.72-.09-1.19-.68-1.14-1.38.38-5.41-.28-13.4-.92-21.13l-.15-1.79c-.12-1.5-.27-2.93-.41-4.32-.18-1.75-.35-3.43-.48-5.21-1.89 4.52-3.56 9.29-5.17 13.91-5.24 15-10.19 29.17-21.3 29.76-.56.03-1.09.04-1.61.04h.01ZM121.93 45.12c-1.45 1.23-2.89 2.46-4.32 3.7.48-1.81.97-3.61 1.46-5.42-1.56-.92-3.13-1.84-4.71-2.75 1.87-.2 3.74-.39 5.61-.58.49-1.81.98-3.61 1.48-5.42.66 1.69 1.31 3.39 1.96 5.08 1.87-.18 3.74-.35 5.62-.52-1.48 1.21-2.95 2.42-4.42 3.64.65 1.69 1.3 3.39 1.94 5.08-1.53-.95-3.07-1.89-4.62-2.83v.02ZM145.52 43.38c-1.51 1.16-3 2.32-4.49 3.49.57-1.78 1.14-3.57 1.72-5.35-1.51-1-3.03-1.99-4.56-2.98 1.87-.11 3.75-.21 5.63-.3.58-1.78 1.16-3.57 1.75-5.35.57 1.73 1.14 3.45 1.71 5.18 1.88-.09 3.75-.17 5.63-.24a913.96 913.96 0 0 0-4.59 3.42c.57 1.73 1.13 3.45 1.68 5.18-1.48-1.02-2.97-2.04-4.47-3.06l-.01.01ZM169.161 42.79a547.91 547.91 0 0 0-4.65 3.28c.65-1.76 1.31-3.51 1.98-5.27-1.46-1.07-2.93-2.14-4.41-3.2 1.88-.02 3.75-.03 5.63-.03.66-1.76 1.33-3.51 2.01-5.26.49 1.75.97 3.51 1.45 5.26 1.88 0 3.75.01 5.63.03-1.59 1.06-3.17 2.13-4.75 3.2.48 1.75.96 3.51 1.43 5.26-1.43-1.1-2.87-2.19-4.31-3.28l-.01.01ZM192.8 43.36a562.49 562.49 0 0 0-4.8 3.05c.74-1.73 1.48-3.45 2.23-5.17-1.4-1.14-2.82-2.28-4.24-3.42 1.87.07 3.75.15 5.62.24.75-1.72 1.5-3.45 2.26-5.17.4 1.78.8 3.56 1.19 5.34 1.87.09 3.74.19 5.61.3-1.64.98-3.27 1.97-4.89 2.97.39 1.78.78 3.56 1.17 5.33a475.9 475.9 0 0 0-4.14-3.49l-.01.02Z"/><path fill="#fff" d="M216.39 45.07c-1.65.93-3.3 1.87-4.94 2.82.82-1.69 1.65-3.38 2.48-5.06-1.34-1.21-2.7-2.42-4.06-3.62 1.86.16 3.73.34 5.59.52.83-1.69 1.67-3.37 2.51-5.06.31 1.8.62 3.6.92 5.4 1.86.18 3.72.38 5.58.58-1.68.9-3.36 1.82-5.02 2.73l.9 5.39c-1.31-1.23-2.63-2.46-3.96-3.69v-.01Z"/></svg>